<?xml version="1.0" encoding="utf-8"?>
<!-- Generator: Adobe Illustrator 26.0.3, SVG Export Plug-In . SVG Version: 6.00 Build 0)  -->
<svg version="1.1" id="Layer_1" xmlns:ev="http://www.w3.org/2001/xml-events"
	 xmlns="http://www.w3.org/2000/svg" xmlns:xlink="http://www.w3.org/1999/xlink" x="0px" y="0px" viewBox="0 0 3377.6 804"
	 style="enable-background:new 0 0 3377.6 804;" xml:space="preserve">
<style type="text/css">
	.st0{fill:#FFFFFF;}
	.st1{fill:none;stroke:#101843;}
	.st2{fill:none;}
	.st3{enable-background:new    ;}
	.st4{fill:#191919;}
	.st5{font-family:'ArialMT';}
	.st6{font-size:12px;}
	.st7{letter-spacing:2;}
	.st8{fill:#FFFFFF;stroke:#101843;}
	.st9{letter-spacing:5;}
	.st10{letter-spacing:1;}
	.st11{fill:none;stroke:#191919;}
</style>
<g id="page1" transform="translate(5,5)">
	<rect x="-5" y="-5" class="st0" width="3368" height="794"/>
	<g id="shape1" transform="translate(488.52,177.85)">
		<path class="st0" d="M-5-5h431.4v25H714v266H-5V-5z"/>
		<path class="st1" d="M-5-5h431.4v25H714v266H-5V-5z M-5,20h446.4H-5z"/>
		<rect x="-1.3" y="1" class="st2" width="88" height="14.2"/>
		<text transform="matrix(1 0 0 1 -1.2998 11.3333)" class="st3"><tspan x="0" y="0" class="st4 st5 st6 st7">eMSPserve</tspan><tspan x="84" y="0" class="st4 st5 st6">r</tspan></text>
	</g>
	<g id="shape2" transform="translate(1709.00,81.35)">
		<path class="st0" d="M-5-5h523.2v25H867v606H-5V-5z"/>
		<path class="st1" d="M-5-5h523.2v25H867v606H-5V-5z M-5,20h538.2H-5z"/>
		<rect x="-1.4" y="1" class="st2" width="70.3" height="14.2"/>
		<text transform="matrix(1 0 0 1 -1.4004 11.3333)" class="st3"><tspan x="0" y="0" class="st4 st5 st6 st7">eMSPap</tspan><tspan x="63.6" y="0" class="st4 st5 st6">p</tspan></text>
	</g>
	<g id="group3" transform="translate(1734.52,298.00)">
		<g id="shape4" transform="translate(16.00,0.00)">
			<path class="st8" d="M-5-5h114v80H-5V-5z"/>
		</g>
		<g id="shape5" transform="translate(0.00,12.00)">
			<path class="st8" d="M-5-5h32v16H-5V-5z"/>
		</g>
		<g id="shape6" transform="translate(0.00,52.00)">
			<path class="st8" d="M-5-5h32v16H-5V-5z"/>
		</g>
		<rect x="56.4" y="28.5" class="st2" width="23.1" height="14.2"/>
		<text transform="matrix(1 0 0 1 56.4331 38.8332)" class="st3"><tspan x="0" y="0" class="st4 st5 st6 st9">O</tspan><tspan x="15.1" y="0" class="st4 st5 st6">S</tspan></text>
	</g>
	<g id="group7" transform="translate(2075.00,153.85)">
		<g id="shape8" transform="translate(16.00,0.00)">
			<path class="st8" d="M-5-5h182v80H-5V-5z"/>
		</g>
		<g id="shape9" transform="translate(0.00,12.00)">
			<path class="st8" d="M-5-5h32v16H-5V-5z"/>
		</g>
		<g id="shape10" transform="translate(0.00,52.00)">
			<path class="st8" d="M-5-5h32v16H-5V-5z"/>
		</g>
		<rect x="46" y="28.5" class="st2" width="112.1" height="14.2"/>
		<text transform="matrix(1 0 0 1 45.9668 38.8333)" class="st3"><tspan x="0" y="0" class="st4 st5 st6 st7">appMainActivit</tspan><tspan x="106" y="0" class="st4 st5 st6">y</tspan></text>
	</g>
	<g id="group11" transform="translate(2075.00,267.85)">
		<g id="shape12" transform="translate(16.00,0.00)">
			<path class="st8" d="M-5-5h182v80H-5V-5z"/>
		</g>
		<g id="shape13" transform="translate(0.00,12.00)">
			<path class="st8" d="M-5-5h32v16H-5V-5z"/>
		</g>
		<g id="shape14" transform="translate(0.00,52.00)">
			<path class="st8" d="M-5-5h32v16H-5V-5z"/>
		</g>
		<rect x="36.6" y="28.5" class="st2" width="130.7" height="14.2"/>
		<text transform="matrix(1 0 0 1 36.6338 38.8333)" class="st3"><tspan x="0" y="0" class="st4 st5 st6 st10">appSigningActivit</tspan><tspan x="124.7" y="0" class="st4 st5 st6">y</tspan></text>
	</g>
	<g id="group15" transform="translate(2075.00,381.85)">
		<g id="shape16" transform="translate(16.00,0.00)">
			<path class="st8" d="M-5-5h182v80H-5V-5z"/>
		</g>
		<g id="shape17" transform="translate(0.00,12.00)">
			<path class="st8" d="M-5-5h32v16H-5V-5z"/>
		</g>
		<g id="shape18" transform="translate(0.00,52.00)">
			<path class="st8" d="M-5-5h32v16H-5V-5z"/>
		</g>
		<rect x="30.9" y="28.5" class="st2" width="142.3" height="14.2"/>
		<text transform="matrix(1 0 0 1 30.8496 38.8333)" class="st3"><tspan x="0" y="0" class="st4 st5 st6 st10">appChargingActivit</tspan><tspan x="136.3" y="0" class="st4 st5 st6">y</tspan></text>
	</g>
	<g id="group19" transform="translate(2075.00,489.85)">
		<g id="shape20" transform="translate(16.00,0.00)">
			<path class="st8" d="M-5-5h182v80H-5V-5z"/>
		</g>
		<g id="shape21" transform="translate(0.00,12.00)">
			<path class="st8" d="M-5-5h32v16H-5V-5z"/>
		</g>
		<g id="shape22" transform="translate(0.00,52.00)">
			<path class="st8" d="M-5-5h32v16H-5V-5z"/>
		</g>
		<rect x="20.6" y="28.5" class="st2" width="162.8" height="14.2"/>
		<text transform="matrix(1 0 0 1 20.6162 38.8333)" class="st3"><tspan x="0" y="0" class="st4 st5 st6 st10">appReservationActivit</tspan><tspan x="156.8" y="0" class="st4 st5 st6">y</tspan></text>
	</g>
	<g id="group23" transform="translate(2075.00,607.85)">
		<g id="shape24" transform="translate(16.00,0.00)">
			<path class="st8" d="M-5-5h182v80H-5V-5z"/>
		</g>
		<g id="shape25" transform="translate(0.00,12.00)">
			<path class="st8" d="M-5-5h32v16H-5V-5z"/>
		</g>
		<g id="shape26" transform="translate(0.00,52.00)">
			<path class="st8" d="M-5-5h32v16H-5V-5z"/>
		</g>
		<rect x="22.4" y="28.5" class="st2" width="159.2" height="14.2"/>
		<text transform="matrix(1 0 0 1 22.4004 38.8333)" class="st3"><tspan x="0" y="0" class="st4 st5 st6 st10">appNotificationServic</tspan><tspan x="152.5" y="0" class="st4 st5 st6">e</tspan></text>
	</g>
	<g id="shape27" transform="translate(1864.52,328.00)">
		<path class="st0" d="M55,5c0-5.6,4.4-10,10-10c5.5,0,10,4.4,10,10l0,0c0,5.5-4.5,10-10,10C59.4,15,55,10.5,55,5z"/>
		<path class="st1" d="M55,5c0-5.6,4.4-10,10-10c5.5,0,10,4.4,10,10l0,0c0,5.5-4.5,10-10,10C59.4,15,55,10.5,55,5z M-5,5h60"/>
	</g>
	<g id="shape28" transform="translate(1934.52,322.00)">
		<path class="st1" d="M-5-5c8.8,0,16,7.1,16,16c0,8.8-7.2,16-16,16 M11,11h102"/>
	</g>
	<g id="shape29" transform="translate(2052.00,193.85)">
		<path class="st11" d="M-5-5h39"/>
	</g>
	<g id="shape30" transform="translate(2052.00,647.85)">
		<path class="st11" d="M-5-5h39"/>
	</g>
	<g id="shape31" transform="translate(2052.00,645.85)">
		<path class="st11" d="M-5-5v-452"/>
	</g>
	<g id="shape32" transform="translate(2052.00,529.85)">
		<path class="st11" d="M-5-5h39"/>
	</g>
	<g id="shape33" transform="translate(2052.00,307.85)">
		<path class="st11" d="M-5-5h39"/>
	</g>
	<g id="shape34" transform="translate(2284.00,177.85)">
		<path class="st0" d="M1,11C1,5.4,5.4,1,11,1c5.5,0,10,4.4,10,10l0,0c0,5.5-4.5,10-10,10C5.4,21,1,16.5,1,11 M-16,11H1 M27,11h41"
			/>
		<path class="st1" d="M11-5c8.8,0,16,7.1,16,16c0,8.8-7.2,16-16,16 M1,11C1,5.4,5.4,1,11,1c5.5,0,10,4.4,10,10l0,0
			c0,5.5-4.5,10-10,10C5.4,21,1,16.5,1,11 M-16,11H1 M27,11h41"/>
	</g>
	<g id="shape35" transform="translate(2284.00,291.85)">
		<path class="st0" d="M1,11C1,5.4,5.4,1,11,1c5.5,0,10,4.4,10,10l0,0c0,5.5-4.5,10-10,10C5.4,21,1,16.5,1,11 M-16,11H1 M27,11h41"
			/>
		<path class="st1" d="M11-5c8.8,0,16,7.1,16,16c0,8.8-7.2,16-16,16 M1,11C1,5.4,5.4,1,11,1c5.5,0,10,4.4,10,10l0,0
			c0,5.5-4.5,10-10,10C5.4,21,1,16.5,1,11 M-16,11H1 M27,11h41"/>
	</g>
	<g id="shape36" transform="translate(2284.00,405.85)">
		<path class="st0" d="M1,11C1,5.4,5.4,1,11,1c5.5,0,10,4.4,10,10l0,0c0,5.5-4.5,10-10,10C5.4,21,1,16.5,1,11 M-16,11H1 M27,11h41"
			/>
		<path class="st1" d="M11-5c8.8,0,16,7.1,16,16c0,8.8-7.2,16-16,16 M1,11C1,5.4,5.4,1,11,1c5.5,0,10,4.4,10,10l0,0
			c0,5.5-4.5,10-10,10C5.4,21,1,16.5,1,11 M-16,11H1 M27,11h41"/>
	</g>
	<g id="shape37" transform="translate(2284.00,513.85)">
		<path class="st0" d="M1,11C1,5.4,5.4,1,11,1c5.5,0,10,4.4,10,10l0,0c0,5.5-4.5,10-10,10C5.4,21,1,16.5,1,11 M-16,11H1 M27,11h41"
			/>
		<path class="st1" d="M11-5c8.8,0,16,7.1,16,16c0,8.8-7.2,16-16,16 M1,11C1,5.4,5.4,1,11,1c5.5,0,10,4.4,10,10l0,0
			c0,5.5-4.5,10-10,10C5.4,21,1,16.5,1,11 M-16,11H1 M27,11h41"/>
	</g>
	<g id="shape38" transform="translate(2284.00,631.85)">
		<path class="st0" d="M1,11C1,5.4,5.4,1,11,1c5.5,0,10,4.4,10,10l0,0c0,5.5-4.5,10-10,10C5.4,21,1,16.5,1,11 M-16,11H1 M27,11h41"
			/>
		<path class="st1" d="M11-5c8.8,0,16,7.1,16,16c0,8.8-7.2,16-16,16 M1,11C1,5.4,5.4,1,11,1c5.5,0,10,4.4,10,10l0,0
			c0,5.5-4.5,10-10,10C5.4,21,1,16.5,1,11 M-16,11H1 M27,11h41"/>
	</g>
	<g id="shape39" transform="translate(2357.00,647.85)">
		<path class="st11" d="M-5-5v-531"/>
	</g>
	<g id="shape40" transform="translate(1798.00,116.85)">
		<path class="st11" d="M-5-5h556"/>
	</g>
	<g id="shape41" transform="translate(1799.52,298.00)">
		<path class="st11" d="M-5-5l-0.6-181.2"/>
	</g>
	<g id="shape42" transform="translate(1890.00,355.00)">
		<rect x="-1" y="3.5" class="st2" width="85.4" height="14.2"/>
		<text transform="matrix(1 0 0 1 -1 13.8332)" class="st3"><tspan x="0" y="0" class="st4 st5 st6 st7">OSInterfac</tspan><tspan x="78.7" y="0" class="st4 st5 st6">e</tspan></text>
	</g>
	<g id="shape43" transform="translate(2369.00,168.85)">
		<rect x="-1" y="13.5" class="st2" width="97" height="14.2"/>
		<text transform="matrix(1 0 0 1 -1 23.8333)" class="st3"><tspan x="0" y="0" class="st4 st5 st6 st7">MainInterfac</tspan><tspan x="90.3" y="0" class="st4 st5 st6">e</tspan></text>
	</g>
	<g id="shape44" transform="translate(2369.00,282.85)">
		<rect x="-1" y="13.5" class="st2" width="115.6" height="14.2"/>
		<text transform="matrix(1 0 0 1 -1 23.8333)" class="st3"><tspan x="0" y="0" class="st4 st5 st6 st10">SingingInterfac</tspan><tspan x="109" y="0" class="st4 st5 st6">e</tspan></text>
	</g>
	<g id="shape45" transform="translate(2369.00,397.50)">
		<rect x="-1" y="13.5" class="st2" width="127.2" height="14.2"/>
		<text transform="matrix(1 0 0 1 -1 23.8332)" class="st3"><tspan x="0" y="0" class="st4 st5 st6 st10">ChargingInterfac</tspan><tspan x="120.5" y="0" class="st4 st5 st6">e</tspan></text>
	</g>
	<g id="shape46" transform="translate(2369.00,513.85)">
		<rect x="-1" y="13.5" class="st2" width="147.7" height="14.2"/>
		<text transform="matrix(1 0 0 1 -1 23.8333)" class="st3"><tspan x="0" y="0" class="st4 st5 st6 st10">ReservationInterfac</tspan><tspan x="141" y="0" class="st4 st5 st6">e</tspan></text>
	</g>
	<g id="shape47" transform="translate(2369.00,613.85)">
		<rect x="-1" y="13.5" class="st2" width="141.4" height="14.2"/>
		<text transform="matrix(1 0 0 1 -1 23.8333)" class="st3"><tspan x="0" y="0" class="st4 st5 st6 st10">NotificationInterfac</tspan><tspan x="134.8" y="0" class="st4 st5 st6">e</tspan></text>
	</g>
	<g id="group48" transform="translate(1056.52,298.00)">
		<g id="shape49" transform="translate(16.00,0.00)">
			<path class="st8" d="M-5-5h114v80H-5V-5z"/>
		</g>
		<g id="shape50" transform="translate(0.00,12.00)">
			<path class="st8" d="M-5-5h32v16H-5V-5z"/>
		</g>
		<g id="shape51" transform="translate(0.00,52.00)">
			<path class="st8" d="M-5-5h32v16H-5V-5z"/>
		</g>
		<rect x="20.9" y="28.5" class="st2" width="94.3" height="14.2"/>
		<text transform="matrix(1 0 0 1 20.8501 38.8332)" class="st3"><tspan x="0" y="0" class="st4 st5 st6 st7">eMSP_route</tspan><tspan x="90.3" y="0" class="st4 st5 st6">r</tspan></text>
	</g>
	<g id="group52" transform="translate(520.27,234.35)">
		<g id="shape53" transform="translate(16.00,0.00)">
			<path class="st8" d="M-5-5h279v80H-5V-5z"/>
		</g>
		<g id="shape54" transform="translate(0.00,12.00)">
			<path class="st8" d="M-5-5h32v16H-5V-5z"/>
		</g>
		<g id="shape55" transform="translate(0.00,52.00)">
			<path class="st8" d="M-5-5h32v16H-5V-5z"/>
		</g>
		<rect x="58" y="28.5" class="st2" width="185" height="14.2"/>
		<text transform="matrix(1 0 0 1 58 38.8333)" class="st3"><tspan x="0" y="0" class="st4 st5 st6 st7">eMSP_registrationServic</tspan><tspan x="178.3" y="0" class="st4 st5 st6">e</tspan></text>
	</g>
	<g id="group56" transform="translate(520.27,351.85)">
		<g id="shape57" transform="translate(16.00,0.00)">
			<path class="st8" d="M-5-5h279v80H-5V-5z"/>
		</g>
		<g id="shape58" transform="translate(0.00,12.00)">
			<path class="st8" d="M-5-5h32v16H-5V-5z"/>
		</g>
		<g id="shape59" transform="translate(0.00,52.00)">
			<path class="st8" d="M-5-5h32v16H-5V-5z"/>
		</g>
		<rect x="59.3" y="28.5" class="st2" width="182.3" height="14.2"/>
		<text transform="matrix(1 0 0 1 59.3335 38.8333)" class="st3"><tspan x="0" y="0" class="st4 st5 st6 st10">eMSP_notificationServic</tspan><tspan x="175.6" y="0" class="st4 st5 st6">e</tspan></text>
	</g>
	<g id="shape60" transform="translate(895.52,258.35)">
		<path class="st0" d="M1,11C1,5.4,5.4,1,11,1c5.5,0,10,4.4,10,10l0,0c0,5.5-4.5,10-10,10C5.4,21,1,16.5,1,11 M-85.3,11H1 M11,27v54
			"/>
		<path class="st1" d="M27,11c0,8.8-7.2,16-16,16C2.1,27-5,19.8-5,11 M1,11C1,5.4,5.4,1,11,1c5.5,0,10,4.4,10,10l0,0
			c0,5.5-4.5,10-10,10C5.4,21,1,16.5,1,11 M-85.3,11H1 M11,27v54"/>
	</g>
	<g id="shape61" transform="translate(895.52,375.85)">
		<path class="st0" d="M1,11C1,5.4,5.4,1,11,1c5.5,0,10,4.4,10,10l0,0c0,5.5-4.5,10-10,10C5.4,21,1,16.5,1,11 M-85.3,11H1 M11-5v-33
			"/>
		<path class="st1" d="M-5,11C-5,2.1,2.1-5,11-5c8.8,0,16,7.1,16,16 M1,11C1,5.4,5.4,1,11,1c5.5,0,10,4.4,10,10l0,0
			c0,5.5-4.5,10-10,10C5.4,21,1,16.5,1,11 M-85.3,11H1 M11-5v-33"/>
	</g>
	<g id="shape62" transform="translate(1072.52,338.00)">
		<path class="st11" d="M-5-5l-161-0.1"/>
	</g>
	<g id="shape63" transform="translate(1408.52,322.00)">
		<path class="st0" d="M1,11C1,5.4,5.4,1,11,1c5.5,0,10,4.4,10,10l0,0c0,5.5-4.5,10-10,10C5.4,21,1,16.5,1,11 M-227,11H1 M27,11h310
			"/>
		<path class="st1" d="M11-5c8.8,0,16,7.1,16,16c0,8.8-7.2,16-16,16 M1,11C1,5.4,5.4,1,11,1c5.5,0,10,4.4,10,10l0,0
			c0,5.5-4.5,10-10,10C5.4,21,1,16.5,1,11 M-227,11H1 M27,11h310"/>
	</g>
	<g id="shape64" transform="translate(1362.02,267.85)">
		<rect x="-1" y="13.5" class="st2" width="105.9" height="14.2"/>
		<text transform="matrix(1 0 0 1 -1.0005 23.8333)" class="st3"><tspan x="0" y="0" class="st4 st5 st6 st7">eMSPInterfac</tspan><tspan x="99.2" y="0" class="st4 st5 st6">e</tspan></text>
	</g>
	<g id="shape65" transform="translate(2052.00,421.85)">
		<path class="st11" d="M-5-5h39"/>
	</g>
	<g id="group66" transform="translate(225.48,283.35)">
		<g id="shape67" transform="translate(16.00,0.00)">
			<path class="st8" d="M-5-5h114v80H-5V-5z"/>
		</g>
		<g id="shape68" transform="translate(0.00,12.00)">
			<path class="st8" d="M-5-5h32v16H-5V-5z"/>
		</g>
		<g id="shape69" transform="translate(0.00,52.00)">
			<path class="st8" d="M-5-5h32v16H-5V-5z"/>
		</g>
		<rect x="24.9" y="28.5" class="st2" width="86.2" height="14.2"/>
		<text transform="matrix(1 0 0 1 24.8667 38.8333)" class="st3"><tspan x="0" y="0" class="st4 st5 st6 st7">user_DBM</tspan><tspan x="78.2" y="0" class="st4 st5 st6">S</tspan></text>
	</g>
	<g id="shape70" transform="translate(372.00,277.85)">
		<rect x="-1" y="3.5" class="st2" width="80.9" height="14.2"/>
		<text transform="matrix(1 0 0 1 -1 13.8333)" class="st3"><tspan x="0" y="0" class="st4 st5 st6 st7">DBMS_AP</tspan><tspan x="77.6" y="0" class="st4 st5 st6">I</tspan></text>
	</g>
	<g id="shape71" transform="translate(399.00,307.35)">
		<path class="st0" d="M1,11C1,5.4,5.4,1,11,1c5.5,0,10,4.4,10,10l0,0c0,5.5-4.5,10-10,10C5.4,21,1,16.5,1,11 M-46.3,11H1 M27,11
			h57.5"/>
		<path class="st1" d="M11-5c8.8,0,16,7.1,16,16c0,8.8-7.2,16-16,16 M1,11C1,5.4,5.4,1,11,1c5.5,0,10,4.4,10,10l0,0
			c0,5.5-4.5,10-10,10C5.4,21,1,16.5,1,11 M-46.3,11H1 M27,11h57.5"/>
	</g>
	<g id="shape72" transform="translate(2771.00,138.00)">
		<path class="st8" d="M-5,7.5C-5,0.5,0.5-5,7.5-5C14.4-5,20,0.5,20,7.5C20,14.4,14.4,20,7.5,20C0.5,20-5,14.4-5,7.5z"/>
	</g>
	<g id="group73" transform="translate(2570.00,141.00)">
		<g id="shape74" transform="matrix(1.00,0.00,0.00,1.00,0.0,0.0)">
			<path class="st1" d="M5,5h186"/>
		</g>
		<g id="shape75" transform="matrix(1.00,0.00,0.00,1.00,0.0,0.0)">
			<path class="st8" d="M-5-5h20v20H-5V-5z"/>
		</g>
		<g id="shape76" transform="translate(196.00,-6.00)">
			<path class="st1" d="M11,27C2.1,27-5,19.8-5,11C-5,2.1,2.1-5,11-5"/>
		</g>
	</g>
	<g id="shape77" transform="translate(2745.00,168.85)">
		<rect x="-1" y="3.5" class="st2" width="77.4" height="14.2"/>
		<text transform="matrix(1 0 0 1 -1 13.8333)" class="st3"><tspan x="0" y="0" class="st4 st5 st6 st7">CPOs_AP</tspan><tspan x="74" y="0" class="st4 st5 st6">I</tspan></text>
	</g>
	<g id="shape78" transform="translate(2771.00,251.00)">
		<path class="st8" d="M-5,7.5C-5,0.5,0.5-5,7.5-5C14.4-5,20,0.5,20,7.5C20,14.4,14.4,20,7.5,20C0.5,20-5,14.4-5,7.5z"/>
	</g>
	<g id="group79" transform="translate(2570.00,254.00)">
		<g id="shape80" transform="matrix(1.00,0.00,0.00,1.00,0.0,0.0)">
			<path class="st1" d="M5,5h186"/>
		</g>
		<g id="shape81" transform="matrix(1.00,0.00,0.00,1.00,0.0,0.0)">
			<path class="st8" d="M-5-5h20v20H-5V-5z"/>
		</g>
		<g id="shape82" transform="translate(196.00,-6.00)">
			<path class="st1" d="M11,27C2.1,27-5,19.8-5,11C-5,2.1,2.1-5,11-5"/>
		</g>
	</g>
	<g id="shape83" transform="translate(2736.50,273.85)">
		<rect x="-1" y="13.5" class="st2" width="96.1" height="14.2"/>
		<text transform="matrix(1 0 0 1 -1 23.8333)" class="st3"><tspan x="0" y="0" class="st4 st5 st6 st7">payment_AP</tspan><tspan x="92.7" y="0" class="st4 st5 st6">I</tspan></text>
	</g>
	<g id="shape84" transform="translate(481.00,313.35)">
		<path class="st8" d="M-5-5h20v20H-5V-5z"/>
	</g>
	<g id="shape85" transform="translate(1197.00,328.00)">
		<path class="st8" d="M-5-5h20v20H-5V-5z"/>
	</g>
	<g id="shape86" transform="translate(1698.00,328.00)">
		<path class="st8" d="M-5-5h20v20H-5V-5z"/>
	</g>
	<g id="shape87" transform="translate(830.02,227.00)">
		<rect x="-1" y="13.5" class="st2" width="152.1" height="14.2"/>
		<text transform="matrix(1 0 0 1 -1 23.8332)" class="st3"><tspan x="0" y="0" class="st4 st5 st6 st10">RegistratitonInterfac</tspan><tspan x="145.4" y="0" class="st4 st5 st6">e</tspan></text>
	</g>
	<g id="shape88" transform="translate(830.02,391.00)">
		<rect x="-1" y="13.5" class="st2" width="141.4" height="14.2"/>
		<text transform="matrix(1 0 0 1 -1 23.8332)" class="st3"><tspan x="0" y="0" class="st4 st5 st6 st10">NotificationInterfac</tspan><tspan x="134.8" y="0" class="st4 st5 st6">e</tspan></text>
	</g>
</g>
</svg>
