<?xml version="1.0" encoding="utf-8"?>
<!-- Generator: Adobe Illustrator 24.1.3, SVG Export Plug-In . SVG Version: 6.00 Build 0)  -->
<svg version="1.1" id="Layer_1" xmlns="http://www.w3.org/2000/svg" xmlns:xlink="http://www.w3.org/1999/xlink" x="0px" y="0px"
	 viewBox="0 0 432 288" style="enable-background:new 0 0 432 288;" xml:space="preserve">
<style type="text/css">
	.st0{fill:none;}
	.st1{fill:#FFFFFF;}
	.st2{fill:#FFFFFF;fill-opacity:0;}
	.st3{fill:none;stroke:#000000;}
	.st4{fill:none;stroke:#000000;stroke-miterlimit:10;}
	.st5{font-family:'ArialMT';}
	.st6{font-size:16px;}
	.st7{fill:#FFFFFF;stroke:#000000;}
	.st8{font-family:'HelveticaNeueLight';}
	.st9{font-size:15px;}
</style>
<path class="st0" d="z"/>
<g>
	<ellipse pointer-events="all" class="st1" cx="63.5" cy="102.5" rx="14" ry="14"/>
	<rect x="35.5" y="88.5" pointer-events="all" class="st2" width="56" height="112"/>
	<ellipse pointer-events="all" class="st3" cx="63.5" cy="102.5" rx="14" ry="14"/>
	<path pointer-events="all" class="st4" d="M63.5,116.5v46.7"/>
	<path pointer-events="all" class="st4" d="M35.5,133.3h56"/>
	<path pointer-events="all" class="st4" d="M63.5,163.2l-28,37.3"/>
	<path pointer-events="all" class="st4" d="M63.5,163.2l28,37.3"/>
</g>
<g>
	<rect x="0.5" y="200.5" pointer-events="all" class="st0" width="126" height="56"/>
</g>
<text transform="matrix(1 0 0 1 14.3125 223.8)" class="st5 st6">U</text>
<text transform="matrix(1 0 0 1 25.8672 223.8)" class="st5 st6">n</text>
<text transform="matrix(1 0 0 1 34.7656 223.8)" class="st5 st6">r</text>
<text transform="matrix(1 0 0 1 40.0938 223.8)" class="st5 st6">e</text>
<text transform="matrix(1 0 0 1 48.9922 223.8)" class="st5 st6">g</text>
<text transform="matrix(1 0 0 1 57.8906 223.8)" class="st5 st6">i</text>
<text transform="matrix(1 0 0 1 61.4453 223.8)" class="st5 st6">s</text>
<text transform="matrix(1 0 0 1 69.4453 223.8)" class="st5 st6">t</text>
<text transform="matrix(1 0 0 1 73.8906 223.8)" class="st5 st6">e</text>
<text transform="matrix(1 0 0 1 82.7891 223.8)" class="st5 st6">r</text>
<text transform="matrix(1 0 0 1 88.1172 223.8)" class="st5 st6">e</text>
<text transform="matrix(1 0 0 1 97.0156 223.8)" class="st5 st6">d</text>
<text transform="matrix(1 0 0 1 105.9141 223.8)" class="st5 st6"> </text>
<text transform="matrix(1 0 0 1 42.9969 243)" class="st5 st6">U</text>
<text transform="matrix(1 0 0 1 54.5516 243)" class="st5 st6">s</text>
<text transform="matrix(1 0 0 1 62.5516 243)" class="st5 st6">e</text>
<text transform="matrix(1 0 0 1 71.45 243)" class="st5 st6">r</text>
<text transform="matrix(1 0 0 1 14.3125 223.8)" class="st5 st6">U</text>
<text transform="matrix(1 0 0 1 25.8672 223.8)" class="st5 st6">n</text>
<text transform="matrix(1 0 0 1 34.7656 223.8)" class="st5 st6">r</text>
<text transform="matrix(1 0 0 1 40.0938 223.8)" class="st5 st6">e</text>
<text transform="matrix(1 0 0 1 48.9922 223.8)" class="st5 st6">g</text>
<text transform="matrix(1 0 0 1 57.8906 223.8)" class="st5 st6">i</text>
<text transform="matrix(1 0 0 1 61.4453 223.8)" class="st5 st6">s</text>
<text transform="matrix(1 0 0 1 69.4453 223.8)" class="st5 st6">t</text>
<text transform="matrix(1 0 0 1 73.8906 223.8)" class="st5 st6">e</text>
<text transform="matrix(1 0 0 1 82.7891 223.8)" class="st5 st6">r</text>
<text transform="matrix(1 0 0 1 88.1172 223.8)" class="st5 st6">e</text>
<text transform="matrix(1 0 0 1 97.0156 223.8)" class="st5 st6">d</text>
<text transform="matrix(1 0 0 1 105.9141 223.8)" class="st5 st6"> </text>
<g>
	<rect x="226.5" y="0.5" pointer-events="all" class="st7" width="205" height="287"/>
</g>
<g>
	<g transform="translate(-0.5 -0.5)">
		<text transform="matrix(1 0 0 1 309.4102 23.6)" class="st8 st9">e</text>
		<text transform="matrix(1 0 0 1 317.1952 23.6)" class="st8 st9">M</text>
		<text transform="matrix(1 0 0 1 329.6901 23.6)" class="st8 st9">S</text>
		<text transform="matrix(1 0 0 1 339.14 23.6)" class="st8 st9">P</text>
	</g>
</g>
<g>
	<ellipse pointer-events="all" class="st7" cx="329" cy="144" rx="52" ry="26"/>
</g>
<g>
	<g transform="translate(-0.5 -0.5)">
		<text transform="matrix(1 0 0 1 304.1581 151.7)" class="st8 st6">S</text>
		<text transform="matrix(1 0 0 1 314.2379 151.7)" class="st8 st6">i</text>
		<text transform="matrix(1 0 0 1 317.1978 151.7)" class="st8 st6">g</text>
		<text transform="matrix(1 0 0 1 326.0938 151.7)" class="st8 st6">n</text>
		<text transform="matrix(1 0 0 1 334.6856 151.7)" class="st8 st6">U</text>
		<text transform="matrix(1 0 0 1 345.6456 151.7)" class="st8 st6">p</text>
	</g>
</g>
<g>
	<path pointer-events="stroke" class="st4" d="M91.5,144.3H277"/>
</g>
<g>
	<g transform="translate(-0.5 -0.5)">
		<text transform="matrix(1 0 0 1 160.1348 140.4999)" class="st8 st6">+</text>
		<text transform="matrix(1 0 0 1 169.7346 140.4999)" class="st8 st6">I</text>
		<text transform="matrix(1 0 0 1 173.2864 140.4999)" class="st8 st6">n</text>
		<text transform="matrix(1 0 0 1 181.8782 140.4999)" class="st8 st6">i</text>
		<text transform="matrix(1 0 0 1 184.8382 140.4999)" class="st8 st6">t</text>
		<text transform="matrix(1 0 0 1 189.574 140.4999)" class="st8 st6">i</text>
		<text transform="matrix(1 0 0 1 192.534 140.4999)" class="st8 st6">a</text>
		<text transform="matrix(1 0 0 1 200.8379 140.4999)" class="st8 st6">t</text>
		<text transform="matrix(1 0 0 1 205.5738 140.4999)" class="st8 st6">e</text>
	</g>
</g>
<g>
	<path pointer-events="stroke" class="st4" d="M91.5,144.3H277"/>
</g>
<g>
	<g transform="translate(-0.5 -0.5)">
		<text transform="matrix(1 0 0 1 160.1348 140.4999)" class="st8 st6">+</text>
		<text transform="matrix(1 0 0 1 169.7346 140.4999)" class="st8 st6">I</text>
		<text transform="matrix(1 0 0 1 173.2864 140.4999)" class="st8 st6">n</text>
		<text transform="matrix(1 0 0 1 181.8782 140.4999)" class="st8 st6">i</text>
		<text transform="matrix(1 0 0 1 184.8382 140.4999)" class="st8 st6">t</text>
		<text transform="matrix(1 0 0 1 189.574 140.4999)" class="st8 st6">i</text>
		<text transform="matrix(1 0 0 1 192.534 140.4999)" class="st8 st6">a</text>
		<text transform="matrix(1 0 0 1 200.8379 140.4999)" class="st8 st6">t</text>
		<text transform="matrix(1 0 0 1 205.5738 140.4999)" class="st8 st6">e</text>
	</g>
</g>
<a transform="translate(0,-5)">
</a>
<path class="st0" d="z"/>
</svg>
