<?xml version="1.0" encoding="utf-8"?>
<!-- Generator: Adobe Illustrator 24.1.3, SVG Export Plug-In . SVG Version: 6.00 Build 0)  -->
<svg version="1.1" id="Layer_1" xmlns="http://www.w3.org/2000/svg" xmlns:xlink="http://www.w3.org/1999/xlink" x="0px" y="0px"
	 viewBox="0 0 614 281" style="enable-background:new 0 0 614 281;" xml:space="preserve">
<style type="text/css">
	.st0{fill:none;}
	.st1{fill:#FFFFFF;}
	.st2{fill:#FFFFFF;fill-opacity:0;}
	.st3{fill:none;stroke:#000000;}
	.st4{fill:none;stroke:#000000;stroke-miterlimit:10;}
	.st5{font-family:'ArialMT';}
	.st6{font-size:20px;}
	.st7{fill:#FFFFFF;stroke:#000000;}
	.st8{font-family:'HelveticaNeueLight';}
	.st9{font-size:15px;}
	.st10{font-size:12px;}
	.st11{fill:none;stroke:#000000;stroke-miterlimit:10;stroke-dasharray:4;}
	.st12{font-size:11px;}
</style>
<path class="st0" d="z"/>
<ellipse pointer-events="all" class="st1" cx="52" cy="95.8" rx="14.3" ry="14.3"/>
<rect x="23.3" y="81.5" pointer-events="all" class="st2" width="57.4" height="114.8"/>
<ellipse pointer-events="all" class="st3" cx="52" cy="95.8" rx="14.3" ry="14.3"/>
<path pointer-events="all" class="st4" d="M52,110.2V158"/>
<path pointer-events="all" class="st4" d="M23.3,127.4h57.4"/>
<path pointer-events="all" class="st4" d="M52,158l-28.7,38.3"/>
<path pointer-events="all" class="st4" d="M52,158l28.7,38.3"/>
<rect x="0.5" y="213.5" pointer-events="all" class="st0" width="103" height="56"/>
<text transform="matrix(1 0 0 1 22 241)" class="st5 st6">C</text>
<text transform="matrix(1 0 0 1 36.4434 241)" class="st5 st6">P</text>
<text transform="matrix(1 0 0 1 49.7832 241)" class="st5 st6">M</text>
<text transform="matrix(1 0 0 1 66.4434 241)" class="st5 st6">S</text>
<text transform="matrix(1 0 0 1 58.7832 241)" class="st5 st6"> </text>
<text transform="matrix(1 0 0 1 3.3399 265)" class="st5 st6">e</text>
<text transform="matrix(1 0 0 1 14.4629 265)" class="st5 st6">m</text>
<text transform="matrix(1 0 0 1 31.1231 265)" class="st5 st6">p</text>
<text transform="matrix(1 0 0 1 42.2461 265)" class="st5 st6">l</text>
<text transform="matrix(1 0 0 1 46.6895 265)" class="st5 st6">o</text>
<text transform="matrix(1 0 0 1 57.8125 265)" class="st5 st6">y</text>
<text transform="matrix(1 0 0 1 67.8125 265)" class="st5 st6">e</text>
<text transform="matrix(1 0 0 1 78.9356 265)" class="st5 st6">e</text>
<rect x="235.3" y="0.5" pointer-events="all" class="st7" width="378" height="280"/>
<g transform="translate(-0.5 -0.5)">
	<text transform="matrix(1 0 0 1 403.5165 23.6)" class="st8 st9">C</text>
	<text transform="matrix(1 0 0 1 414.0764 23.6)" class="st8 st9">P</text>
	<text transform="matrix(1 0 0 1 423.5263 23.6)" class="st8 st9">M</text>
	<text transform="matrix(1 0 0 1 436.0212 23.6)" class="st8 st9">S</text>
</g>
<ellipse pointer-events="all" class="st7" cx="334.9" cy="77.9" rx="62.6" ry="31.3"/>
<g transform="translate(-0.5 -0.5)">
	<text transform="matrix(1 0 0 1 300.65 75.7)" class="st8 st10">D</text>
	<text transform="matrix(1 0 0 1 308.87 75.7)" class="st8 st10">S</text>
	<text transform="matrix(1 0 0 1 316.4298 75.7)" class="st8 st10">O</text>
	<text transform="matrix(1 0 0 1 325.3218 75.7)" class="st8 st10"> </text>
	<text transform="matrix(1 0 0 1 328.6578 75.7)" class="st8 st10">m</text>
	<text transform="matrix(1 0 0 1 338.6537 75.7)" class="st8 st10">a</text>
	<text transform="matrix(1 0 0 1 344.8817 75.7)" class="st8 st10">n</text>
	<text transform="matrix(1 0 0 1 351.3255 75.7)" class="st8 st10">u</text>
	<text transform="matrix(1 0 0 1 357.7694 75.7)" class="st8 st10">a</text>
	<text transform="matrix(1 0 0 1 363.9973 75.7)" class="st8 st10">l</text>
	<text transform="matrix(1 0 0 1 366.2173 75.7)" class="st8 st10"> </text>
	<text transform="matrix(1 0 0 1 300.8533 90.1)" class="st8 st10">c</text>
	<text transform="matrix(1 0 0 1 307.0813 90.1)" class="st8 st10">h</text>
	<text transform="matrix(1 0 0 1 313.5251 90.1)" class="st8 st10">a</text>
	<text transform="matrix(1 0 0 1 319.7531 90.1)" class="st8 st10">n</text>
	<text transform="matrix(1 0 0 1 326.1969 90.1)" class="st8 st10">g</text>
	<text transform="matrix(1 0 0 1 332.8689 90.1)" class="st8 st10">e</text>
	<text transform="matrix(1 0 0 1 300.65 75.7)" class="st8 st10">D</text>
	<text transform="matrix(1 0 0 1 308.87 75.7)" class="st8 st10">S</text>
	<text transform="matrix(1 0 0 1 316.4298 75.7)" class="st8 st10">O</text>
	<text transform="matrix(1 0 0 1 325.3218 75.7)" class="st8 st10"> </text>
	<text transform="matrix(1 0 0 1 328.6578 75.7)" class="st8 st10">m</text>
	<text transform="matrix(1 0 0 1 338.6537 75.7)" class="st8 st10">a</text>
	<text transform="matrix(1 0 0 1 344.8817 75.7)" class="st8 st10">n</text>
	<text transform="matrix(1 0 0 1 351.3255 75.7)" class="st8 st10">u</text>
	<text transform="matrix(1 0 0 1 357.7694 75.7)" class="st8 st10">a</text>
	<text transform="matrix(1 0 0 1 363.9973 75.7)" class="st8 st10">l</text>
	<text transform="matrix(1 0 0 1 366.2173 75.7)" class="st8 st10"> </text>
	<text transform="matrix(1 0 0 1 300.8533 90.1)" class="st8 st10">c</text>
	<text transform="matrix(1 0 0 1 307.0813 90.1)" class="st8 st10">h</text>
	<text transform="matrix(1 0 0 1 313.5251 90.1)" class="st8 st10">a</text>
	<text transform="matrix(1 0 0 1 319.7531 90.1)" class="st8 st10">n</text>
	<text transform="matrix(1 0 0 1 326.1969 90.1)" class="st8 st10">g</text>
	<text transform="matrix(1 0 0 1 332.8689 90.1)" class="st8 st10">e</text>
</g>
<ellipse pointer-events="all" class="st7" cx="334.9" cy="196.8" rx="62.6" ry="31.3"/>
<g transform="translate(-0.5 -0.5)">
	<text transform="matrix(1 0 0 1 291.975 194.7001)" class="st8 st10">B</text>
	<text transform="matrix(1 0 0 1 299.9789 194.7001)" class="st8 st10">a</text>
	<text transform="matrix(1 0 0 1 306.2069 194.7001)" class="st8 st10">t</text>
	<text transform="matrix(1 0 0 1 309.7588 194.7001)" class="st8 st10">t</text>
	<text transform="matrix(1 0 0 1 313.3106 194.7001)" class="st8 st10">e</text>
	<text transform="matrix(1 0 0 1 319.5386 194.7001)" class="st8 st10">r</text>
	<text transform="matrix(1 0 0 1 323.3185 194.7001)" class="st8 st10">y</text>
	<text transform="matrix(1 0 0 1 328.8744 194.7001)" class="st8 st10"> </text>
	<text transform="matrix(1 0 0 1 332.2104 194.7001)" class="st8 st10">p</text>
	<text transform="matrix(1 0 0 1 339.0983 194.7001)" class="st8 st10">o</text>
	<text transform="matrix(1 0 0 1 345.7703 194.7001)" class="st8 st10">l</text>
	<text transform="matrix(1 0 0 1 347.9903 194.7001)" class="st8 st10">i</text>
	<text transform="matrix(1 0 0 1 350.2102 194.7001)" class="st8 st10">c</text>
	<text transform="matrix(1 0 0 1 356.4382 194.7001)" class="st8 st10">y</text>
	<text transform="matrix(1 0 0 1 361.9942 194.7001)" class="st8 st10"> </text>
	<text transform="matrix(1 0 0 1 365.3302 194.7001)" class="st8 st10">m</text>
	<text transform="matrix(1 0 0 1 289.2761 209.1)" class="st8 st10">a</text>
	<text transform="matrix(1 0 0 1 295.504 209.1)" class="st8 st10">n</text>
	<text transform="matrix(1 0 0 1 301.9479 209.1)" class="st8 st10">u</text>
	<text transform="matrix(1 0 0 1 308.3917 209.1)" class="st8 st10">a</text>
	<text transform="matrix(1 0 0 1 314.6197 209.1)" class="st8 st10">l</text>
	<text transform="matrix(1 0 0 1 316.8397 209.1)" class="st8 st10"> </text>
	<text transform="matrix(1 0 0 1 320.1757 209.1)" class="st8 st10">o</text>
	<text transform="matrix(1 0 0 1 326.8477 209.1)" class="st8 st10">v</text>
	<text transform="matrix(1 0 0 1 332.4036 209.1)" class="st8 st10">e</text>
	<text transform="matrix(1 0 0 1 338.6316 209.1)" class="st8 st10">r</text>
	<text transform="matrix(1 0 0 1 342.4114 209.1)" class="st8 st10">r</text>
	<text transform="matrix(1 0 0 1 346.1913 209.1)" class="st8 st10">i</text>
	<text transform="matrix(1 0 0 1 348.4113 209.1)" class="st8 st10">d</text>
	<text transform="matrix(1 0 0 1 355.2991 209.1)" class="st8 st10">e</text>
	<text transform="matrix(1 0 0 1 291.975 194.7001)" class="st8 st10">B</text>
	<text transform="matrix(1 0 0 1 299.9789 194.7001)" class="st8 st10">a</text>
	<text transform="matrix(1 0 0 1 306.2069 194.7001)" class="st8 st10">t</text>
	<text transform="matrix(1 0 0 1 309.7588 194.7001)" class="st8 st10">t</text>
	<text transform="matrix(1 0 0 1 313.3106 194.7001)" class="st8 st10">e</text>
	<text transform="matrix(1 0 0 1 319.5386 194.7001)" class="st8 st10">r</text>
	<text transform="matrix(1 0 0 1 323.3185 194.7001)" class="st8 st10">y</text>
	<text transform="matrix(1 0 0 1 328.8744 194.7001)" class="st8 st10"> </text>
	<text transform="matrix(1 0 0 1 332.2104 194.7001)" class="st8 st10">p</text>
	<text transform="matrix(1 0 0 1 339.0983 194.7001)" class="st8 st10">o</text>
	<text transform="matrix(1 0 0 1 345.7703 194.7001)" class="st8 st10">l</text>
	<text transform="matrix(1 0 0 1 347.9903 194.7001)" class="st8 st10">i</text>
	<text transform="matrix(1 0 0 1 350.2102 194.7001)" class="st8 st10">c</text>
	<text transform="matrix(1 0 0 1 356.4382 194.7001)" class="st8 st10">y</text>
	<text transform="matrix(1 0 0 1 361.9942 194.7001)" class="st8 st10"> </text>
	<text transform="matrix(1 0 0 1 365.3302 194.7001)" class="st8 st10">m</text>
	<text transform="matrix(1 0 0 1 289.2761 209.1)" class="st8 st10">a</text>
	<text transform="matrix(1 0 0 1 295.504 209.1)" class="st8 st10">n</text>
	<text transform="matrix(1 0 0 1 301.9479 209.1)" class="st8 st10">u</text>
	<text transform="matrix(1 0 0 1 308.3917 209.1)" class="st8 st10">a</text>
	<text transform="matrix(1 0 0 1 314.6197 209.1)" class="st8 st10">l</text>
	<text transform="matrix(1 0 0 1 316.8397 209.1)" class="st8 st10"> </text>
	<text transform="matrix(1 0 0 1 320.1757 209.1)" class="st8 st10">o</text>
	<text transform="matrix(1 0 0 1 326.8477 209.1)" class="st8 st10">v</text>
	<text transform="matrix(1 0 0 1 332.4036 209.1)" class="st8 st10">e</text>
	<text transform="matrix(1 0 0 1 338.6316 209.1)" class="st8 st10">r</text>
	<text transform="matrix(1 0 0 1 342.4114 209.1)" class="st8 st10">r</text>
	<text transform="matrix(1 0 0 1 346.1913 209.1)" class="st8 st10">i</text>
	<text transform="matrix(1 0 0 1 348.4113 209.1)" class="st8 st10">d</text>
	<text transform="matrix(1 0 0 1 355.2991 209.1)" class="st8 st10">e</text>
</g>
<ellipse pointer-events="all" class="st7" cx="537.9" cy="140.5" rx="62.6" ry="31.3"/>
<g transform="translate(-0.5 -0.5)">
	<text transform="matrix(1 0 0 1 523.7679 145.9)" class="st8 st10">L</text>
	<text transform="matrix(1 0 0 1 530.2117 145.9)" class="st8 st10">o</text>
	<text transform="matrix(1 0 0 1 536.8837 145.9)" class="st8 st10">g</text>
	<text transform="matrix(1 0 0 1 543.5558 145.9)" class="st8 st10">i</text>
	<text transform="matrix(1 0 0 1 545.7757 145.9)" class="st8 st10">n</text>
</g>
<path pointer-events="stroke" class="st11" d="M397.5,77.9h28.9c6.7,0,10,3.3,10,10v42.6c0,6.7,3.3,10,10,10h26.7"/>
<path pointer-events="all" class="st4" d="M462.2,146.5l12-6l-12-6"/>
<g>
	<text transform="matrix(1 0 0 1 438.689 88)" class="st8 st12">&lt;&lt;Include&gt;&gt;</text>
</g>
<path pointer-events="stroke" class="st11" d="M397.5,196.8h28.9c6.7,0,10-3.3,10-10v-36.3c0-6.7,3.3-10,10-10h26.7"/>
<path pointer-events="all" class="st4" d="M462.2,146.5l12-6l-12-6"/>
<g>
	<text transform="matrix(1 0 0 1 437.689 190.7)" class="st8 st12">&lt;&lt;Include&gt;&gt;</text>
</g>
<path pointer-events="stroke" class="st4" d="M80.7,138.9h85.8c6.7,0,10-3.3,10-10V87.5c0-6.7,3.3-10,10-10h86"/>
<path pointer-events="stroke" class="st4" d="M80.7,138.9h85.8c6.7,0,10,3.3,10,10v37.9c0,6.7,3.3,10,10,10h85.8"/>
<g transform="translate(-0.5 -0.5)">
	<text transform="matrix(1 0 0 1 112.0067 135.6)" class="st8 st9">+</text>
	<text transform="matrix(1 0 0 1 121.0065 135.6)" class="st8 st9"> </text>
	<text transform="matrix(1 0 0 1 125.1765 135.6)" class="st8 st9">i</text>
	<text transform="matrix(1 0 0 1 127.9515 135.6)" class="st8 st9">n</text>
	<text transform="matrix(1 0 0 1 136.0063 135.6)" class="st8 st9">i</text>
	<text transform="matrix(1 0 0 1 138.7813 135.6)" class="st8 st9">t</text>
	<text transform="matrix(1 0 0 1 143.2211 135.6)" class="st8 st9">i</text>
	<text transform="matrix(1 0 0 1 145.9961 135.6)" class="st8 st9">a</text>
	<text transform="matrix(1 0 0 1 153.781 135.6)" class="st8 st9">t</text>
	<text transform="matrix(1 0 0 1 158.2209 135.6)" class="st8 st9">e</text>
</g>
<path pointer-events="stroke" class="st11" d="M397.5,77.9h28.9c6.7,0,10,3.3,10,10v42.6c0,6.7,3.3,10,10,10h26.7"/>
<path pointer-events="all" class="st4" d="M462.2,146.5l12-6l-12-6"/>
<g>
	<text transform="matrix(1 0 0 1 438.689 88)" class="st8 st12">&lt;&lt;Include&gt;&gt;</text>
</g>
<path pointer-events="stroke" class="st11" d="M397.5,196.8h28.9c6.7,0,10-3.3,10-10v-36.3c0-6.7,3.3-10,10-10h26.7"/>
<path pointer-events="all" class="st4" d="M462.2,146.5l12-6l-12-6"/>
<g>
	<text transform="matrix(1 0 0 1 437.689 190.7)" class="st8 st12">&lt;&lt;Include&gt;&gt;</text>
</g>
<path pointer-events="stroke" class="st4" d="M80.7,138.9h85.8c6.7,0,10-3.3,10-10V87.5c0-6.7,3.3-10,10-10h86"/>
<path pointer-events="stroke" class="st4" d="M80.7,138.9h85.8c6.7,0,10,3.3,10,10v37.9c0,6.7,3.3,10,10,10h85.8"/>
<g transform="translate(-0.5 -0.5)">
	<text transform="matrix(1 0 0 1 112.0067 135.6)" class="st8 st9">+</text>
	<text transform="matrix(1 0 0 1 121.0065 135.6)" class="st8 st9"> </text>
	<text transform="matrix(1 0 0 1 125.1765 135.6)" class="st8 st9">i</text>
	<text transform="matrix(1 0 0 1 127.9515 135.6)" class="st8 st9">n</text>
	<text transform="matrix(1 0 0 1 136.0063 135.6)" class="st8 st9">i</text>
	<text transform="matrix(1 0 0 1 138.7813 135.6)" class="st8 st9">t</text>
	<text transform="matrix(1 0 0 1 143.2211 135.6)" class="st8 st9">i</text>
	<text transform="matrix(1 0 0 1 145.9961 135.6)" class="st8 st9">a</text>
	<text transform="matrix(1 0 0 1 153.781 135.6)" class="st8 st9">t</text>
	<text transform="matrix(1 0 0 1 158.2209 135.6)" class="st8 st9">e</text>
</g>
<a transform="translate(0,-5)">
</a>
<path class="st0" d="z"/>
</svg>
