<?xml version="1.0" encoding="utf-8"?>
<!-- Generator: Adobe Illustrator 24.1.3, SVG Export Plug-In . SVG Version: 6.00 Build 0)  -->
<svg version="1.1" id="Layer_1" xmlns="http://www.w3.org/2000/svg" xmlns:xlink="http://www.w3.org/1999/xlink" x="0px" y="0px"
	 viewBox="0 0 614 281" style="enable-background:new 0 0 614 281;" xml:space="preserve">
<style type="text/css">
	.st0{fill:none;}
	.st1{fill:#FFFFFF;}
	.st2{fill:#FFFFFF;fill-opacity:0;}
	.st3{fill:none;stroke:#000000;}
	.st4{fill:none;stroke:#000000;stroke-miterlimit:10;}
	.st5{font-family:'ArialMT';}
	.st6{font-size:20px;}
	.st7{fill:#FFFFFF;stroke:#000000;}
	.st8{font-family:'HelveticaNeueLight';}
	.st9{font-size:15px;}
	.st10{font-size:10.7312px;}
	.st11{font-size:11.2834px;}
	.st12{font-size:12px;}
	.st13{fill:none;stroke:#000000;stroke-miterlimit:10;stroke-dasharray:4;}
	.st14{font-size:11px;}
</style>
<path class="st0" d="z"/>
<g>
	<g>
		<ellipse pointer-events="all" class="st1" cx="52.2" cy="95.8" rx="14.4" ry="14.3"/>
		<rect x="23.5" y="81.5" pointer-events="all" class="st2" width="57.4" height="114.8"/>
		<ellipse pointer-events="all" class="st3" cx="52.2" cy="95.8" rx="14.4" ry="14.3"/>
		<path pointer-events="all" class="st4" d="M52.2,110.2V158"/>
		<path pointer-events="all" class="st4" d="M23.5,127.4h57.4"/>
		<path pointer-events="all" class="st4" d="M52.2,158l-28.7,38.3"/>
		<path pointer-events="all" class="st4" d="M52.2,158l28.7,38.3"/>
	</g>
	<g>
		<rect x="0.7" y="213.5" pointer-events="all" class="st0" width="103" height="56"/>
	</g>
	<text transform="matrix(1 0 0 1 1.9875 241)" class="st5 st6">R</text>
	<text transform="matrix(1 0 0 1 16.4309 241)" class="st5 st6">e</text>
	<text transform="matrix(1 0 0 1 27.5539 241)" class="st5 st6">g</text>
	<text transform="matrix(1 0 0 1 38.677 241)" class="st5 st6">i</text>
	<text transform="matrix(1 0 0 1 43.1203 241)" class="st5 st6">s</text>
	<text transform="matrix(1 0 0 1 53.1203 241)" class="st5 st6">t</text>
	<text transform="matrix(1 0 0 1 58.677 241)" class="st5 st6">e</text>
	<text transform="matrix(1 0 0 1 69.8 241)" class="st5 st6">r</text>
	<text transform="matrix(1 0 0 1 76.4602 241)" class="st5 st6">e</text>
	<text transform="matrix(1 0 0 1 87.5832 241)" class="st5 st6">d</text>
	<text transform="matrix(1 0 0 1 -0.3187 265)" class="st5 st6"> </text>
	<text transform="matrix(1 0 0 1 25.2379 265)" class="st5 st6">U</text>
	<text transform="matrix(1 0 0 1 39.6813 265)" class="st5 st6">s</text>
	<text transform="matrix(1 0 0 1 49.6813 265)" class="st5 st6">e</text>
	<text transform="matrix(1 0 0 1 60.8043 265)" class="st5 st6">r</text>
	<text transform="matrix(1 0 0 1 1.9875 241)" class="st5 st6">R</text>
	<text transform="matrix(1 0 0 1 16.4309 241)" class="st5 st6">e</text>
	<text transform="matrix(1 0 0 1 27.5539 241)" class="st5 st6">g</text>
	<text transform="matrix(1 0 0 1 38.677 241)" class="st5 st6">i</text>
	<text transform="matrix(1 0 0 1 43.1203 241)" class="st5 st6">s</text>
	<text transform="matrix(1 0 0 1 53.1203 241)" class="st5 st6">t</text>
	<text transform="matrix(1 0 0 1 58.677 241)" class="st5 st6">e</text>
	<text transform="matrix(1 0 0 1 69.8 241)" class="st5 st6">r</text>
	<text transform="matrix(1 0 0 1 76.4602 241)" class="st5 st6">e</text>
	<text transform="matrix(1 0 0 1 87.5832 241)" class="st5 st6">d</text>
	<text transform="matrix(1 0 0 1 -0.3187 265)" class="st5 st6"> </text>
	<g>
		<rect x="235.5" y="0.5" pointer-events="all" class="st7" width="378" height="280"/>
	</g>
	<g>
		<g transform="translate(-0.5 -0.5)">
			<text transform="matrix(1 0 0 1 404.9102 23.6)" class="st8 st9">e</text>
			<text transform="matrix(1 0 0 1 412.6952 23.6)" class="st8 st9">M</text>
			<text transform="matrix(1 0 0 1 425.1901 23.6)" class="st8 st9">S</text>
			<text transform="matrix(1 0 0 1 434.64 23.6)" class="st8 st9">P</text>
		</g>
	</g>
	<g>
		<ellipse pointer-events="all" class="st7" cx="335.1" cy="71" rx="62.6" ry="31.3"/>
	</g>
	<g>
		<text transform="matrix(1 0 0 1 285.2583 69.5514)" class="st8 st10">M</text>
		<text transform="matrix(1 0 0 1 294.1973 69.5514)" class="st8 st10">a</text>
		<text transform="matrix(1 0 0 1 299.7671 69.5514)" class="st8 st10">k</text>
		<text transform="matrix(1 0 0 1 305.1328 69.5514)" class="st8 st10">e</text>
		<text transform="matrix(1 0 0 1 310.7021 69.5514)" class="st8 st10"> </text>
		<text transform="matrix(1 0 0 1 313.6855 69.5514)" class="st8 st10">r</text>
		<text transform="matrix(1 0 0 1 317.0654 69.5514)" class="st8 st10">e</text>
		<text transform="matrix(1 0 0 1 322.6348 69.5514)" class="st8 st10">s</text>
		<text transform="matrix(1 0 0 1 327.7969 69.5514)" class="st8 st10">e</text>
		<text transform="matrix(1 0 0 1 333.3662 69.5514)" class="st8 st10">r</text>
		<text transform="matrix(1 0 0 1 336.7461 69.5514)" class="st8 st10">v</text>
		<text transform="matrix(1 0 0 1 341.7148 69.5514)" class="st8 st10">a</text>
		<text transform="matrix(1 0 0 1 347.2842 69.5514)" class="st8 st10">t</text>
		<text transform="matrix(1 0 0 1 350.4609 69.5514)" class="st8 st10">i</text>
		<text transform="matrix(1 0 0 1 352.4453 69.5514)" class="st8 st10">o</text>
		<text transform="matrix(1 0 0 1 358.4121 69.5514)" class="st8 st10">n</text>
		<text transform="matrix(1 0 0 1 364.1748 69.5514)" class="st8 st10"> </text>
		<text transform="matrix(1 0 0 1 367.1582 69.5514)" class="st8 st10">f</text>
		<text transform="matrix(1 0 0 1 369.9375 69.5514)" class="st8 st10">o</text>
		<text transform="matrix(1 0 0 1 375.9043 69.5514)" class="st8 st10">r</text>
		<text transform="matrix(1 0 0 1 379.2842 69.5514)" class="st8 st10"> </text>
		<text transform="matrix(1 0 0 1 296.225 82.4288)" class="st8 st10">i</text>
		<text transform="matrix(1 0 0 1 298.2104 82.4288)" class="st8 st10">m</text>
		<text transform="matrix(1 0 0 1 307.1968 82.4288)" class="st8 st10">m</text>
		<text transform="matrix(1 0 0 1 316.1357 82.4288)" class="st8 st10">e</text>
		<text transform="matrix(1 0 0 1 321.7051 82.4288)" class="st8 st10">d</text>
		<text transform="matrix(1 0 0 1 327.8647 82.4288)" class="st8 st10">i</text>
		<text transform="matrix(1 0 0 1 329.8501 82.4288)" class="st8 st10">a</text>
		<text transform="matrix(1 0 0 1 335.4194 82.4288)" class="st8 st10">t</text>
		<text transform="matrix(1 0 0 1 338.5957 82.4288)" class="st8 st10">e</text>
		<text transform="matrix(1 0 0 1 320.165 82.4288)" class="st8 st10"> </text>
		<text transform="matrix(1 0 0 1 347.1484 82.4288)" class="st8 st10">f</text>
		<text transform="matrix(1 0 0 1 349.9277 82.4288)" class="st8 st10">u</text>
		<text transform="matrix(1 0 0 1 355.6904 82.4288)" class="st8 st10">t</text>
		<text transform="matrix(1 0 0 1 358.8672 82.4288)" class="st8 st10">u</text>
		<text transform="matrix(1 0 0 1 364.6289 82.4288)" class="st8 st10">r</text>
		<text transform="matrix(1 0 0 1 368.0098 82.4288)" class="st8 st10">e</text>
	</g>
	<g>
		<ellipse pointer-events="all" class="st7" cx="335.1" cy="138.7" rx="62.6" ry="31.3"/>
	</g>
	<g>
		<g transform="translate(-0.5 -0.5)">
			<text transform="matrix(1 0 0 1 277.2236 136.8986)" class="st8 st11">M</text>
			<text transform="matrix(1 0 0 1 286.6226 136.8986)" class="st8 st11">a</text>
			<text transform="matrix(1 0 0 1 292.4785 136.8986)" class="st8 st11">k</text>
			<text transform="matrix(1 0 0 1 298.1201 136.8986)" class="st8 st11">e</text>
			<text transform="matrix(1 0 0 1 303.9761 136.8986)" class="st8 st11"> </text>
			<text transform="matrix(1 0 0 1 307.1128 136.8986)" class="st8 st11">r</text>
			<text transform="matrix(1 0 0 1 310.667 136.8986)" class="st8 st11">e</text>
			<text transform="matrix(1 0 0 1 316.5234 136.8986)" class="st8 st11">s</text>
			<text transform="matrix(1 0 0 1 321.9502 136.8986)" class="st8 st11">e</text>
			<text transform="matrix(1 0 0 1 327.8066 136.8986)" class="st8 st11">r</text>
			<text transform="matrix(1 0 0 1 331.3604 136.8986)" class="st8 st11">v</text>
			<text transform="matrix(1 0 0 1 336.585 136.8986)" class="st8 st11">a</text>
			<text transform="matrix(1 0 0 1 342.4404 136.8986)" class="st8 st11">t</text>
			<text transform="matrix(1 0 0 1 345.7803 136.8986)" class="st8 st11">i</text>
			<text transform="matrix(1 0 0 1 347.8682 136.8986)" class="st8 st11">o</text>
			<text transform="matrix(1 0 0 1 354.1416 136.8986)" class="st8 st11">n</text>
			<text transform="matrix(1 0 0 1 360.2002 136.8986)" class="st8 st11"> </text>
			<text transform="matrix(1 0 0 1 363.3369 136.8986)" class="st8 st11">f</text>
			<text transform="matrix(1 0 0 1 366.2598 136.8986)" class="st8 st11">o</text>
			<text transform="matrix(1 0 0 1 372.5332 136.8986)" class="st8 st11">r</text>
			<text transform="matrix(1 0 0 1 376.0869 136.8986)" class="st8 st11"> </text>
			<text transform="matrix(1 0 0 1 379.2236 136.8986)" class="st8 st11">t</text>
			<text transform="matrix(1 0 0 1 382.5635 136.8986)" class="st8 st11">h</text>
			<text transform="matrix(1 0 0 1 388.623 136.8986)" class="st8 st11">e</text>
			<text transform="matrix(1 0 0 1 315.8242 150.4386)" class="st8 st11"> </text>
			<text transform="matrix(1 0 0 1 318.9609 150.4386)" class="st8 st11">f</text>
			<text transform="matrix(1 0 0 1 321.8833 150.4386)" class="st8 st11">u</text>
			<text transform="matrix(1 0 0 1 327.9424 150.4386)" class="st8 st11">t</text>
			<text transform="matrix(1 0 0 1 331.2822 150.4386)" class="st8 st11">u</text>
			<text transform="matrix(1 0 0 1 337.3408 150.4386)" class="st8 st11">r</text>
			<text transform="matrix(1 0 0 1 340.895 150.4386)" class="st8 st11">e</text>
		</g>
	</g>
	<g>
		<ellipse pointer-events="all" class="st7" cx="335.1" cy="209" rx="62.6" ry="31.3"/>
	</g>
	<g>
		<g transform="translate(-0.5 -0.5)">
			<text transform="matrix(1 0 0 1 297.6375 206.7001)" class="st8 st12">S</text>
			<text transform="matrix(1 0 0 1 305.1974 206.7001)" class="st8 st12">t</text>
			<text transform="matrix(1 0 0 1 308.7493 206.7001)" class="st8 st12">a</text>
			<text transform="matrix(1 0 0 1 314.9772 206.7001)" class="st8 st12">r</text>
			<text transform="matrix(1 0 0 1 318.7571 206.7001)" class="st8 st12">t</text>
			<text transform="matrix(1 0 0 1 322.309 206.7001)" class="st8 st12"> </text>
			<text transform="matrix(1 0 0 1 325.645 206.7001)" class="st8 st12">c</text>
			<text transform="matrix(1 0 0 1 331.8729 206.7001)" class="st8 st12">h</text>
			<text transform="matrix(1 0 0 1 338.3168 206.7001)" class="st8 st12">a</text>
			<text transform="matrix(1 0 0 1 344.5447 206.7001)" class="st8 st12">r</text>
			<text transform="matrix(1 0 0 1 348.3246 206.7001)" class="st8 st12">g</text>
			<text transform="matrix(1 0 0 1 354.9966 206.7001)" class="st8 st12">i</text>
			<text transform="matrix(1 0 0 1 357.2166 206.7001)" class="st8 st12">n</text>
			<text transform="matrix(1 0 0 1 363.6604 206.7001)" class="st8 st12">g</text>
			<text transform="matrix(1 0 0 1 370.3324 206.7001)" class="st8 st12"> </text>
			<text transform="matrix(1 0 0 1 298.9559 221.1)" class="st8 st12">p</text>
			<text transform="matrix(1 0 0 1 305.8438 221.1)" class="st8 st12">r</text>
			<text transform="matrix(1 0 0 1 309.6236 221.1)" class="st8 st12">o</text>
			<text transform="matrix(1 0 0 1 316.2956 221.1)" class="st8 st12">c</text>
			<text transform="matrix(1 0 0 1 322.5236 221.1)" class="st8 st12">e</text>
			<text transform="matrix(1 0 0 1 328.7516 221.1)" class="st8 st12">s</text>
			<text transform="matrix(1 0 0 1 334.5234 221.1)" class="st8 st12">s</text>
			<text transform="matrix(1 0 0 1 297.6375 206.7001)" class="st8 st12">S</text>
			<text transform="matrix(1 0 0 1 305.1974 206.7001)" class="st8 st12">t</text>
			<text transform="matrix(1 0 0 1 308.7493 206.7001)" class="st8 st12">a</text>
			<text transform="matrix(1 0 0 1 314.9772 206.7001)" class="st8 st12">r</text>
			<text transform="matrix(1 0 0 1 318.7571 206.7001)" class="st8 st12">t</text>
			<text transform="matrix(1 0 0 1 322.309 206.7001)" class="st8 st12"> </text>
			<text transform="matrix(1 0 0 1 325.645 206.7001)" class="st8 st12">c</text>
			<text transform="matrix(1 0 0 1 331.8729 206.7001)" class="st8 st12">h</text>
			<text transform="matrix(1 0 0 1 338.3168 206.7001)" class="st8 st12">a</text>
			<text transform="matrix(1 0 0 1 344.5447 206.7001)" class="st8 st12">r</text>
			<text transform="matrix(1 0 0 1 348.3246 206.7001)" class="st8 st12">g</text>
			<text transform="matrix(1 0 0 1 354.9966 206.7001)" class="st8 st12">i</text>
			<text transform="matrix(1 0 0 1 357.2166 206.7001)" class="st8 st12">n</text>
			<text transform="matrix(1 0 0 1 363.6604 206.7001)" class="st8 st12">g</text>
			<text transform="matrix(1 0 0 1 370.3324 206.7001)" class="st8 st12"> </text>
			<text transform="matrix(1 0 0 1 298.9559 221.1)" class="st8 st12">p</text>
			<text transform="matrix(1 0 0 1 305.8438 221.1)" class="st8 st12">r</text>
			<text transform="matrix(1 0 0 1 309.6236 221.1)" class="st8 st12">o</text>
			<text transform="matrix(1 0 0 1 316.2956 221.1)" class="st8 st12">c</text>
			<text transform="matrix(1 0 0 1 322.5236 221.1)" class="st8 st12">e</text>
			<text transform="matrix(1 0 0 1 328.7516 221.1)" class="st8 st12">s</text>
			<text transform="matrix(1 0 0 1 334.5234 221.1)" class="st8 st12">s</text>
		</g>
	</g>
	<g>
		<ellipse pointer-events="all" class="st7" cx="538.1" cy="140.5" rx="62.6" ry="31.3"/>
	</g>
	<g>
		<g transform="translate(-0.5 -0.5)">
			<text transform="matrix(1 0 0 1 523.7679 145.9)" class="st8 st12">L</text>
			<text transform="matrix(1 0 0 1 530.2117 145.9)" class="st8 st12">o</text>
			<text transform="matrix(1 0 0 1 536.8837 145.9)" class="st8 st12">g</text>
			<text transform="matrix(1 0 0 1 543.5558 145.9)" class="st8 st12">i</text>
			<text transform="matrix(1 0 0 1 545.7757 145.9)" class="st8 st12">n</text>
		</g>
	</g>
	<g>
		<path pointer-events="stroke" class="st13" d="M397.7,71h130.4c6.7,0,10,3.3,10,10v26"/>
		<path pointer-events="all" class="st4" d="M532.1,96.1l6,12l6-12"/>
	</g>
	<g>
		<g>
			<text transform="matrix(1 0 0 1 439.989 80)" class="st8 st14">&lt;&lt;Include&gt;&gt;</text>
		</g>
	</g>
	<g>
		<path pointer-events="stroke" class="st13" d="M397.7,209h130.4c6.7,0,10-3.3,10-10v-25"/>
		<path pointer-events="all" class="st4" d="M544.1,184.9l-6-12l-6,12"/>
	</g>
	<g>
		<g>
			<text transform="matrix(1 0 0 1 445.989 204)" class="st8 st14">&lt;&lt;Include&gt;&gt;</text>
		</g>
	</g>
	<g>
		<path pointer-events="stroke" class="st13" d="M397.7,139.6h75.6"/>
		<path pointer-events="all" class="st4" d="M462.4,145.6l12-6l-12-6"/>
	</g>
	<g>
		<g>
			<text transform="matrix(1 0 0 1 404.989 151.6)" class="st8 st14">&lt;&lt;Include&gt;&gt;</text>
		</g>
	</g>
	<g>
		<path pointer-events="stroke" class="st4" d="M80.9,138.9h85.8c6.7,0,10-3.3,10-10V81.5c0-6.7,3.3-10,10-10h85.8"/>
	</g>
	<g>
		<path pointer-events="stroke" class="st4" d="M80.9,138.9h85.8c6.7,0,10,3.3,10,10v49.6c0,6.7,3.3,10,10,10h85.8"/>
	</g>
	<g>
		<path pointer-events="stroke" class="st4" d="M80.9,138.8h191.6"/>
	</g>
	<g>
		<g transform="translate(-0.5 -0.5)">
			<text transform="matrix(1 0 0 1 105.0067 135.6)" class="st8 st9">+</text>
			<text transform="matrix(1 0 0 1 114.0065 135.6)" class="st8 st9"> </text>
			<text transform="matrix(1 0 0 1 118.1765 135.6)" class="st8 st9">i</text>
			<text transform="matrix(1 0 0 1 120.9515 135.6)" class="st8 st9">n</text>
			<text transform="matrix(1 0 0 1 129.0063 135.6)" class="st8 st9">i</text>
			<text transform="matrix(1 0 0 1 131.7813 135.6)" class="st8 st9">t</text>
			<text transform="matrix(1 0 0 1 136.2211 135.6)" class="st8 st9">i</text>
			<text transform="matrix(1 0 0 1 138.9961 135.6)" class="st8 st9">a</text>
			<text transform="matrix(1 0 0 1 146.781 135.6)" class="st8 st9">t</text>
			<text transform="matrix(1 0 0 1 151.2209 135.6)" class="st8 st9">e</text>
		</g>
	</g>
	<g>
		<path pointer-events="stroke" class="st13" d="M397.7,71h130.4c6.7,0,10,3.3,10,10v26"/>
		<path pointer-events="all" class="st4" d="M532.1,96.1l6,12l6-12"/>
	</g>
	<g>
		<g>
			<text transform="matrix(1 0 0 1 439.989 80)" class="st8 st14">&lt;&lt;Include&gt;&gt;</text>
		</g>
	</g>
	<g>
		<path pointer-events="stroke" class="st13" d="M397.7,209h130.4c6.7,0,10-3.3,10-10v-25"/>
		<path pointer-events="all" class="st4" d="M544.1,184.9l-6-12l-6,12"/>
	</g>
	<g>
		<g>
			<text transform="matrix(1 0 0 1 445.989 204)" class="st8 st14">&lt;&lt;Include&gt;&gt;</text>
		</g>
	</g>
	<g>
		<path pointer-events="stroke" class="st13" d="M397.7,139.6h75.6"/>
		<path pointer-events="all" class="st4" d="M462.4,145.6l12-6l-12-6"/>
	</g>
	<g>
		<g>
			<text transform="matrix(1 0 0 1 404.989 151.6)" class="st8 st14">&lt;&lt;Include&gt;&gt;</text>
		</g>
	</g>
	<g>
		<path pointer-events="stroke" class="st4" d="M80.9,138.9h85.8c6.7,0,10-3.3,10-10V81.5c0-6.7,3.3-10,10-10h85.8"/>
	</g>
	<g>
		<path pointer-events="stroke" class="st4" d="M80.9,138.9h85.8c6.7,0,10,3.3,10,10v49.6c0,6.7,3.3,10,10,10h85.8"/>
	</g>
	<g>
		<path pointer-events="stroke" class="st4" d="M80.9,138.8h191.6"/>
	</g>
	<g>
		<g transform="translate(-0.5 -0.5)">
			<text transform="matrix(1 0 0 1 105.0067 135.6)" class="st8 st9">+</text>
			<text transform="matrix(1 0 0 1 114.0065 135.6)" class="st8 st9"> </text>
			<text transform="matrix(1 0 0 1 118.1765 135.6)" class="st8 st9">i</text>
			<text transform="matrix(1 0 0 1 120.9515 135.6)" class="st8 st9">n</text>
			<text transform="matrix(1 0 0 1 129.0063 135.6)" class="st8 st9">i</text>
			<text transform="matrix(1 0 0 1 131.7813 135.6)" class="st8 st9">t</text>
			<text transform="matrix(1 0 0 1 136.2211 135.6)" class="st8 st9">i</text>
			<text transform="matrix(1 0 0 1 138.9961 135.6)" class="st8 st9">a</text>
			<text transform="matrix(1 0 0 1 146.781 135.6)" class="st8 st9">t</text>
			<text transform="matrix(1 0 0 1 151.2209 135.6)" class="st8 st9">e</text>
		</g>
	</g>
</g>
<a transform="translate(0,-5)">
</a>
<path class="st0" d="z"/>
</svg>
